<?xml version="1.0" encoding="utf-8"?>
<!-- Generator: Adobe Illustrator 21.0.2, SVG Export Plug-In . SVG Version: 6.00 Build 0)  -->
<svg version="1.1" id="Capa_1" xmlns="http://www.w3.org/2000/svg" xmlns:xlink="http://www.w3.org/1999/xlink" x="0px" y="0px"
	 viewBox="0 0 225 158" style="enable-background:new 0 0 225 158;" xml:space="preserve">
<style type="text/css">
	.st0{opacity:0.8;fill:#FFFFFF;enable-background:new    ;}
	.st1{fill:#C52B28;}
</style>
<title>zs-logo</title>
<desc>Created with Sketch.</desc>
<g id="Page-1">
	<g id="Artboard" transform="translate(-3.000000, 0.000000)">
		<g id="zs-logo" transform="translate(3.000000, 0.000000)">
			<path id="Shape" class="st0" d="M105.2,1.3c-0.1,0-0.4-0.1-0.7-0.2c-0.3-0.1-0.7-0.2-0.9-0.3c-0.1,0-0.2-0.1-0.2-0.1h-0.1
				c-0.2-0.1-0.4-0.2-0.6-0.2c-0.1,0-0.3-0.1-0.3-0.1c-0.1-0.1-0.3-0.1-0.3-0.1c-0.1-0.1-0.2-0.1-0.3-0.2c-0.1,0-0.2-0.1-0.3-0.1
				v0.1c0,0.1,0,0.2,0.1,0.2c0.1,0.1,0.1,0.1,0.2,0.2c0.1,0.1,0.2,0.1,0.2,0.2c0.7,0.3,1.2,0.6,1.6,0.8s0.7,0.4,1,0.7
				c0,0,0.1,0,0.1,0.1h0.1c0.5,0.1,0.5,0.2,0.7,0.6c0,0.1,0.1,0.1,0.1,0.1s0,0,0,0.1l0.1,0.2l0.2,0.4l-0.4,0.1
				c-0.2,0-0.3,0.1-0.5,0.1c-0.5,0.1-0.7,0.1-0.9,0.3c0,0.1,0,0.1,0,0.1v0.1c0.1,0,0.1,0,0.2,0c0.3,0,0.4-0.1,0.6-0.1h0.1
				c0.2,0,0.4-0.1,0.7-0.1h0.1h0.1c0.8,0,1.2,0.2,1.5,0.3c0.2,0.1,0.4,0.1,0.6,0.1h0.2h0.3l0.1,0.1c0.1,0,0.2,0.1,0.3,0.2
				c0.2,0.1,0.4,0.3,0.6,0.4c0.2,0.2,0.5,0.4,0.8,0.7c0.3,0.3,0.7,0.6,1,0.9l0.1,0.1l0.7,0.7l0.6,0.6c0.3,0.3,0.5,0.5,0.7,0.6
				c0.2,0.2,0.3,0.3,0.4,0.3l0.1,0.1c0.1,0.1,0.1,0.1,0.2,0.1l0.6,0.4c0.4,0.3,0.9,0.6,1.3,0.8c0.1,0,0.1,0.1,0.2,0.1l0.1,0.1
				c0.4,0.3,0.7,0.8,1,1.2c0.2,0.2,0.3,0.4,0.5,0.6s0.4,0.5,0.6,0.8c0.3,0.3,0.5,0.6,0.7,0.8l0.2,0.3c0.5,0.6,0.9,1.1,1.1,1.5
				c0.7,1.4,1,1.8,1.6,2.7l0.4,0.6c0.2,0.3,0.3,0.5,0.4,0.6c0.1,0.2,0.1,0.3,0.2,0.6l0.1,0.3c0.1,0.9,0.4,2.1,1,3.6
				c0.6,1.6,1.3,3.2,1.9,4.2c0.5,0.9,1,1.7,1.3,2.6c0.4,0.8,0.6,1.6,0.8,2.3l0.1,0.3c0.3,1.2,0.8,3.2,0.7,5.2v0.1
				c0,0.5-0.3,1.3-0.7,2.6l-0.1,0.4c0,0.2-0.1,0.4-0.1,0.5c-0.1,0.1-0.1,0.1-0.1,0.2c-0.6,1.8-0.8,3.3-0.7,4.7s0.6,2.5,1.2,3.6v0.1
				c0,0.2-0.1,0.4-1,1.6l-0.1,0.1c-1,1.3-2.7,3.6-3.6,5.8c-0.6,1.4-1.2,3.3-1.7,4.9l-0.5,1.4c-0.3,1-0.7,2-1,3
				c-0.2,0.6-0.4,1.2-0.6,1.8c-0.2,0.6-0.4,1.2-0.6,1.8c-0.1,0.3-0.2,0.5-0.3,0.8s-0.1,0.5-0.1,0.8c0,0.1,0,0.2,0,0.3s0,0.2-0.1,0.3
				c-0.1,0.3-0.2,0.6-0.2,1s0,0.8,0,1c0,0.4,0,0.8-0.1,1.1c-0.1,0.4-0.2,0.7-0.3,1.1l-0.3,0.7c-0.1,0.3-0.3,0.6-0.4,0.9l-0.7,1.6
				c-0.1,0.2-0.2,0.4-0.3,0.7l-0.3,0.7c-0.4,0.8-0.7,1.7-1.1,2.5c-0.3,0.7-0.6,1.4-1,2.1c-0.4,0.6-0.8,1.3-1.3,1.9
				c-0.3,0.4-0.6,0.8-0.9,1.2c-0.3,0.4-0.6,0.8-1,1.2c-0.3,0.3-0.5,0.6-0.8,0.9c-0.1,0.1-0.2,0.2-0.4,0.4l-0.2,0.3
				c0,0.1-0.1,0.3-0.1,0.4l-0.1,0.2c-0.1,0.4-0.3,0.9-0.5,1.2l0.2,0.1c-0.2,0.3-0.4,0.7-0.6,1.1c-0.3,0.5-0.6,0.9-0.9,1.2l0,0
				l-0.1,0.1l-0.1,0.1c-0.1,0.2-0.3,0.4-0.4,0.6c-0.1,0.2-0.2,0.4-0.2,0.7c0,0.1,0,0.3,0,0.4c0.1,0.1,0.2,0.1,0.3,0.2
				c0.7,0.1,1.4,0.1,2.2,0h0.2c0.3,0,0.5-0.1,0.9-0.3c0.2-0.1,0.4-0.3,0.6-0.4c0.1-0.1,0.1-0.2,0.2-0.3c0.1-0.1,0.2-0.2,0.3-0.3
				l0.1-0.1c0.4-0.4,0.9-0.8,1.2-1.3c0-0.1,0.1-0.2,0.2-0.2c0.1-0.1,0.3-0.2,0.4-0.3c0.3-0.2,0.6-0.5,1.1-0.4h0.2l0.4,0.5l0.1,0.1
				c0.1,0,0.1,0,0.1-0.1c0.2-0.1,0.2-0.1,0.3-0.2c0-0.1,0-0.1,0-0.2c0-0.2,0-0.3,0.1-0.5c0-0.1,0.1-0.2,0.1-0.2
				c0-0.1,0.1-0.2,0.2-0.2c0.2-0.2,0.5-0.4,0.7-0.7c0.2-0.2,0.3-0.5,0.4-0.9c0-0.1,0-0.3,0-0.4s0-0.2,0-0.2c0-0.1,0-0.1-0.1-0.2
				c-0.1-0.2-0.1-0.4-0.1-0.6c0-0.2,0.1-0.3,0.2-0.5c0.3-0.5,0.5-0.9,0.7-1.5c0.1-0.3,0.2-0.6,0.3-0.8c0.1-0.2,0.2-0.5,0.4-0.7
				c0.1-0.2,0.3-0.4,0.5-0.6l0.1-0.1l0.1-0.1l0.1-0.2c0.1-0.1,0.2-0.3,0.4-0.3h0.1c0.1,0,0.2,0,0.3,0.1c0.2,0.1,0.4,0.1,0.5,0.1
				c0.2,0,0.4-0.1,0.6-0.2c0.4-0.2,0.7-0.4,1.1-0.5l0.7-0.3l0,0l-0.2-1.1l0.5-0.1c0.1,0,0.2,0,0.2,0l1.1-0.2
				c0.8-0.2,1.7-0.4,2.5-0.6c0.4-0.1,0.9-0.3,1.3-0.4c0.4-0.2,0.8-0.4,1.2-0.6c0.1-0.1,0.2-0.1,0.3-0.2l0.3-0.2
				c0.1-0.1,0.2-0.2,0.2-0.3s0-0.2,0-0.3s-0.1-0.2-0.1-0.3c-0.1-0.1-0.1-0.1-0.2-0.2c-0.2-0.1-0.3-0.1-0.5-0.1h-0.1
				c-0.2,0-0.4,0-0.6,0.1h-0.2c-0.6,0.1-1.1,0.2-1.7,0.3c-0.2,0-0.3,0-0.5,0c-0.1,0-0.3-0.1-0.4-0.1l-0.3-0.1l0.1-0.3
				c0-0.1,0.1-0.2,0.1-0.3c0.1-0.1,0.1-0.2,0.2-0.4l0.1-0.1c0.2-0.3,0.3-0.6,0.5-1c0.1-0.3,0.2-0.7,0.2-1.2c0-0.2,0.1-0.4,0.1-0.6
				l0.1-0.7l0.6,0.6c0.2,0.2,0.5,0.5,0.7,0.7c0.3,0.2,0.5,0.4,0.8,0.6c0.4,0.3,0.9,0.7,1.3,1c0.4,0.3,0.9,0.7,1.3,1.1
				c0.6,0.5,1.2,1.1,1.8,1.6l0.6,0.5c0.1,0.1,0.2,0.2,0.3,0.3l0.1,0.1c0,0,0,0.1,0.1,0.1l0.4,0.6c0.1,0.1,0.2,0.3,0.3,0.4l0.6,0.8
				v0.1c0,0.2,0.1,0.4,0.2,0.6c0,0.1,0.1,0.1,0.1,0.2v0.1c0.3,0.3,0.4,0.7,0.4,1l0.1,0.2c0,0.1,0.1,0.3,0.1,0.4l0.1,0.5v0.2v0.1
				c0,0.1,0,0.2,0,0.2c0,0.2,0,0.3,0,0.4c0,0.1,0,0.2,0,0.3c0,0.1,0.1,0.1,0.1,0.2h0.1v0.1l0.2,0.1l-0.1,0.1
				c0.1,0.2,0.3,0.3,0.5,0.4c0.1,0,0.1,0.1,0.1,0.1c0.2,0.1,0.3,0.1,0.5,0.2c0.2,0,0.3,0,0.5,0c0.2-0.1,0.5-0.2,0.7-0.3
				c0.1-0.1,0.3-0.2,0.4-0.2l0.1-0.1c0.2-0.1,0.3-0.2,0.5-0.3c0.2-0.1,0.3-0.2,0.4-0.2h0.1c0.2,0,0.3,0.2,0.4,0.4
				c0.1,0.2,0.3,0.5,0.4,0.7c0.1,0.2,0.2,0.5,0.4,0.7v0.1l0.1,0.1c0.1,0,0.2,0,0.2-0.1h0.1c0,0,0.1,0,0.1-0.1v-0.1
				c-0.1-0.2-0.2-0.4-0.3-0.6l-0.3-0.6c-0.1-0.2-0.1-0.4-0.1-0.6c0-0.2,0-0.4,0.1-0.5c0.1-0.3,0.1-0.6,0.1-0.9c0-0.3,0-0.6-0.1-0.9
				c0-0.3-0.1-0.5-0.2-0.8c-0.1-0.3-0.2-0.5-0.4-0.8l-0.1-0.2c-0.1-0.3-0.2-0.5-0.4-0.7c-0.2-0.2-0.5-0.4-0.7-0.5
				c-0.3-0.1-0.5-0.3-0.8-0.5c-0.2-0.2-0.5-0.4-0.7-0.7c-0.6-0.7-1.1-1.4-1.8-2.1c-0.6-0.8-1.1-1.5-1.6-2.2c-0.3-0.5-0.7-0.9-1-1.4
				l-0.3-0.4c-0.2-0.3-0.4-0.5-0.6-0.8c-0.3-0.4-0.6-0.9-0.8-1.3l-0.1-0.2c-0.3-0.5-0.6-0.9-1-1.3c-0.4-0.4-0.8-0.8-1.3-1.1
				c0,0-0.1-0.1-0.2-0.1C130.1,72,130,72,130,72c-0.4-0.2-0.9-0.4-1.3-0.7l-0.4-0.2v-0.2c0-0.2,0.1-0.3,0.1-0.5h-0.1l0.4-0.6
				c0.3-0.3,0.5-0.7,0.8-1.1c0.2-0.3,0.4-0.5,0.6-0.8l0.2-0.2c0.4-0.5,0.9-1.2,1.3-1.7c0.3-0.3,0.6-0.6,0.9-0.8l0.2-0.2
				c0.2-0.2,0.5-0.4,0.7-0.6c0.2-0.2,0.5-0.4,0.7-0.6c0.1-0.1,0.2-0.2,0.4-0.3c0.1-0.1,0.2-0.2,0.3-0.2l0.1-0.1
				c0.1-0.1,0.2-0.2,0.3-0.3c1.7-1.4,3.2-2.7,3.4-5.1c0-0.2,0.1-0.7,0.1-1.2c0-0.2,0-0.4,0-0.5v-0.5l0.5,0.1c0.1,0,0.2,0.1,0.3,0.1
				c0.1,0.1,0.2,0.1,0.4,0.2c0.2,0.1,0.4,0.1,0.6,0.2c0.2,0,0.4,0.1,0.5,0.1l1.9,0.7c0.6,0.2,1.1,0.4,1.6,0.6l0.2,0.1
				c0.2,0.1,0.4,0.1,0.7,0.2c0.2,0,0.3,0.1,0.5,0.1c0.5,0.1,0.9,0.3,1.3,0.4l0.3,0.1c0.1,0,0.1,0.1,0.2,0.1c0.2,0.1,0.3,0.1,0.4,0.1
				c0.2,0,0.3,0.1,0.5,0.2c0.1,0.1,0.2,0.2,0.3,0.3c0.1,0.2,0.3,0.4,0.5,0.6l0.2,0.3c0.1,0.1,0.2,0.2,0.3,0.4s0.2,0.3,0.3,0.4
				c0.1,0.2,0.1,0.4,0.1,0.5c0,0,0,0.1,0.1,0.1l0.1,0.1c0.1,0.1,0.2,0.1,0.4,0.2l0.4,0.2c0.1,0.1,0.1,0.1,0.2,0.1l0.1,0.1v0.4
				c0,0.2,0,0.4,0,0.6s0.1,0.4,0.1,0.6c0.1,0.2,0.2,0.4,0.3,0.5l0.6,0.9c0.3,0.4,0.5,0.8,0.8,1.2c0.2,0.3,0.4,0.5,0.6,0.8l0.1,0.1
				c0.2,0.3,0.4,0.5,0.6,0.8c0.3,0.5,0.6,0.9,0.9,1.4c0.3,0.5,0.6,0.9,0.9,1.4c0.2,0.3,0.4,0.6,0.6,0.9s0.5,0.5,0.8,0.7h0.1
				c0.1,0.1,0.1,0.1,0.2,0.1c0.2,0.1,0.3,0.2,0.5,0.3c0.1,0.1,0.2,0.3,0.2,0.4l0.1,0.2c0.2,0.5,0.4,1,0.6,1.4c0.2,0.3,0.5,0.7,0.7,1
				l0.2,0.3c0.2,0.3,0.4,0.5,0.6,0.8c0,0.1,0.1,0.1,0.1,0.2c0,0.1,0.1,0.2,0.1,0.2c0,0.1,0,0.2,0,0.3v0.2c0,0.2,0,0.3,0,0.5
				s0.1,0.4,0.2,0.6c0.1,0.2,0.2,0.3,0.3,0.5l0.1,0.1v0.1c0.1,0.1,0.1,0.2,0.2,0.4c0.2,0.2,0.3,0.5,0.4,0.8c0,0.1,0.1,0.2,0.1,0.3
				c0,0.1,0.1,0.2,0.1,0.3l0.1,0.2c0.3,0.5,0.6,1,1,1.4c0.1,0.1,0.2,0.1,0.2,0.2c0.7,0.3,1.4,0.4,2.1,0.5s1.4,0,2.1-0.2
				c0.1,0,0.2,0,0.2-0.1c0.3-0.1,0.5-0.3,0.6-0.5c0.1-0.2,0.1-0.5,0-0.8c-0.1-0.3-0.1-0.5-0.2-0.8s-0.2-0.5-0.3-0.8
				c-0.1-0.2-0.2-0.4-0.4-0.5l-0.1-0.1l-0.1-0.1c-0.2-0.2-0.4-0.4-0.5-0.6l-0.1-0.2c-0.1-0.1-0.1-0.2-0.2-0.3
				c-0.1-0.1-0.2-0.2-0.2-0.3c-0.1-0.2-0.3-0.4-0.4-0.6c-0.1-0.2-0.2-0.5-0.3-0.7c-0.2-0.2-0.2-0.4-0.3-0.6l-0.1-0.3
				c-0.1-0.1-0.2-0.2-0.3-0.3s-0.2-0.3-0.3-0.5c0,0,0-0.1-0.1-0.1l-0.1-0.1c-0.1-0.1-0.1-0.1-0.1-0.1l-0.4-0.5
				c-0.2-0.3-0.5-0.6-0.7-0.9c-0.1-0.1-0.2-0.3-0.2-0.4c-0.1-0.1-0.1-0.3-0.2-0.4c-0.1-0.5-0.3-1.1-0.6-1.6
				c-0.2-0.5-0.4-0.9-0.8-1.6l-0.2-0.3c-0.2-0.4-0.4-0.7-0.6-1.1c-0.2-0.3-0.3-0.7-0.5-1l0.3-0.2l-0.3,0.1c-0.1-0.2-0.1-0.4-0.2-0.6
				l-0.4-0.9c-0.4-0.9-0.8-1.7-1.2-2.6c-0.1-0.2-0.1-0.3-0.2-0.5s-0.1-0.3-0.1-0.5c-0.1-0.6-0.2-1.2-0.4-1.9
				c-0.2-0.5-0.4-1.1-0.8-1.8c0,0,0-0.1-0.1-0.2c0-0.1,0-0.1,0-0.2c0-0.4-0.1-0.7-0.2-1s-0.3-0.6-0.6-0.9c-0.2-0.3-0.4-0.5-0.6-0.8
				c-0.2-0.3-0.3-0.6-0.5-0.9c-0.1-0.2-0.2-0.5-0.4-0.7c-0.2-0.2-0.4-0.5-0.6-0.6c-0.4-0.4-0.9-0.8-1.5-1.2c-0.5-0.3-1-0.6-1.6-1
				c-0.5-0.3-1-0.5-1.5-0.8l-0.2-0.1c-0.2-0.1-0.4-0.2-0.6-0.3s-0.4-0.2-0.7-0.3c-0.4-0.2-0.7-0.4-1-0.5l-1.2-0.6h1.2
				c0.1,0,0.1-0.1,0.2-0.2c0.4-0.3,1.3-0.9,2.4-1.6c0.2-0.1,0.4-0.2,0.5-0.3c0.2-0.1,0.4-0.1,0.6,0c0.2,0,0.4,0.1,0.7,0.1
				c0.1,0,0.2,0,0.3,0h0.3c0.4,0,0.8,0.1,1.2,0.2c0.2,0.1,0.3,0.1,0.5,0.1h0.1c0.1,0,0.1,0,0.2,0c0.2,0,0.5,0.1,0.7,0.2
				c0.2,0.1,0.5,0.2,0.7,0.4l3.5,2.4c0.5,0.3,0.9,0.6,1.4,0.9c0.5,0.3,1,0.6,1.6,1c0.3,0.2,0.5,0.4,0.8,0.6l0.2,0.1
				c0.3,0.2,0.7,0.5,1,0.7c0.4,0.3,0.9,0.6,1.3,0.9l0.5,0.3c0.1,0,0.1,0.1,0.2,0.1c0.3,0.1,0.5,0.2,0.8,0.4c0.2,0.2,0.4,0.3,0.7,0.6
				c0.5,0.5,1,1,1.5,1.5c0.6,0.5,1.1,1,1.6,1.4c0.5,0.4,1,0.8,1.5,1.2c0.6,0.3,0.8,0.6,1,0.8c0.1,0.1,0.2,0.2,0.3,0.3l0.8,0.4
				c0.7,0.4,1.4,0.8,2.2,1.2c0.4,0.2,0.7,0.4,0.9,0.6s0.4,0.3,0.6,0.4c0.1,0.1,0.2,0.2,0.3,0.2h0.1l0.1,0.2c0,0,0,0,0,0.1v0.1v0.1
				c0.1,0.2,0.2,0.4,0.3,0.6c0.2,0.3,0.5,0.6,0.7,1.3l0.1,0.3c0.1,0.3,0.1,0.5,0.1,0.7v0.2c0,0.1,0,0.2,0.1,0.3v0.2v0.1l0.2,0.3
				l-0.1-0.3c0,0,0.1,0,0.1-0.1c0.2-0.2,0.1-0.4,0-0.9c0-0.2,0-0.4-0.1-0.5v-0.3l0.4-0.1h0.1c0.1,0,0.2,0,0.3,0.1h0.2
				c0.4,0.1,0.5,0.1,0.8,0.5c0,0,0,0,0.1,0.1l0.1,0.1c0.3,0.2,0.6,0.4,1,0.7c0.3,0.3,0.7,0.7,1.3,1.3c0.1,0,0.2,0.1,0.3,0.2
				c0.1,0.1,0.2,0.1,0.2,0.1c0.1,0,0.1,0,0.2,0c0,0,0.1,0,0.1-0.1c-0.1-0.1-0.1-0.2-0.2-0.3c-0.1-0.1-0.2-0.2-0.2-0.3
				c-0.1-0.1-0.2-0.2-0.2-0.3c-0.1-0.1-0.2-0.2-0.2-0.3c-0.1-0.2-0.2-0.3-0.4-0.5l-0.1-0.1c0,0-0.1-0.1-0.1-0.2
				c-0.1-0.2-0.4-0.5-0.6-0.7c-0.2-0.3-0.3-0.5-0.4-0.6c0-0.1-0.1-0.2-0.2-0.3l-0.1-0.1c-0.1-0.1-0.2-0.3-0.3-0.4
				c-0.2-0.2-0.3-0.3-0.4-0.5c-0.2-0.3-0.4-0.5-0.6-0.8l-0.3-0.4c-0.2-0.2-0.4-0.5-0.5-0.7c-0.2-0.3-0.4-0.5-0.6-0.6
				c-0.2-0.1-0.3-0.2-0.4-0.3c-0.2-0.1-0.4-0.3-0.6-0.5c-1-1.1-1.9-2-2.2-2.2l-0.1-0.1c-0.6-0.5-1.3-1.2-2.1-2
				c-0.6-0.6-1.2-1.2-1.8-1.7c-0.6-0.6-1.3-1.1-2-1.5c-0.3-0.2-0.5-0.4-0.8-0.6c-0.2-0.2-0.5-0.4-0.7-0.6c-0.2-0.2-0.5-0.4-0.7-0.7
				l-0.2-0.3c-0.4-0.4-0.7-0.8-1.2-1.1c-0.3-0.3-0.6-0.5-0.8-0.7l-0.3-0.3c-0.7-0.6-1.5-1.2-2.2-1.8l-0.2-0.2
				c-0.2-0.2-0.4-0.3-0.5-0.4c-0.2-0.2-0.8-0.8-1.1-1.3c-0.1-0.2-0.2-0.4-0.3-0.6c-0.1-0.2,0-0.4,0.2-0.5l0.1-0.1l0.3-0.1l0.1,0.3
				c0.1,0.1,0.2,0.2,0.3,0.2c0.1,0,0.4,0,0.6-0.1c0.1,0,0.3-0.1,0.4-0.2c0.4-0.2,0.6-0.4,0.8-0.7c0.1-0.2,0.2-0.4,0.2-0.6
				s0-0.3-0.1-0.4c-0.1-0.1-0.2-0.1-0.3-0.2c-0.1,0-0.2-0.1-0.3-0.1c-0.1-0.1-0.3-0.1-0.3-0.3c-0.2-0.2-0.2-0.4-0.1-0.6v-0.1v-0.2
				l0.2-0.1c0,0,0.1,0,0.1-0.1c0.1-0.1,0.2-0.2,0.3-0.2c0.5-0.3,0.9-0.6,1.1-0.9c0.3-0.4,0.5-0.8,0.5-1.3c0-0.1,0-0.2,0-0.3
				c0-0.1,0-0.3,0-0.4c-0.1-1.8-0.4-2.4-1.1-3.8l-0.1-0.3c-0.2-0.3-0.4-0.6-0.7-0.9c-0.3-0.2-0.6-0.5-1-0.6
				c-0.6-0.3-1.2-0.5-1.8-0.7l-0.2-0.1c-0.1,0-0.1,0-0.1,0c-0.1,0-0.3-0.1-0.4-0.1h-0.1c-0.2,0-0.4,0-0.6,0.1c-0.2,0-0.4,0-0.5,0
				c-0.2,0-0.4-0.1-0.5-0.2c-0.1-0.1-0.3-0.2-0.4-0.2l-0.1-0.1c-0.1-0.1-0.2-0.1-0.3-0.2c-0.1-0.1-0.2-0.1-0.4-0.1l0,0
				c-0.1,0-0.3,0-0.4,0.1c0,0,0,0-0.1,0l-0.1,0.1c0,0,0,0.1-0.1,0.1l-0.1,0.2l-0.4,0.1c-0.1,0-0.3,0-0.4,0s-0.1,0-0.2,0.1
				c-0.1,0-0.1,0.1-0.2,0.1c-0.2,0.1-0.4,0.3-0.5,0.4h-0.1c-0.2,0.1-0.4,0.1-0.6,0.2c-0.3,0-0.5,0.1-0.7,0.3
				c-0.2,0.2-0.3,0.4-0.3,0.7s0,0.5,0.1,0.8c0.1,0.2,0.2,0.5,0.3,0.8c0.1,0.2,0.2,0.4,0.3,0.6l0.2,0.4l-0.1,0.2
				c-0.1,0.2-0.2,0.3-0.4,0.4c-0.2,0.1-0.3,0.2-0.6,0.2c-0.3,0-0.6,0-1,0c-0.3-0.1-0.6-0.2-0.9-0.3c-0.1,0-0.2-0.1-0.3-0.1
				c-0.1-0.1-0.3-0.1-0.4-0.2l-0.2-0.1c0,0-0.1,0-0.1-0.1c-0.1,0-0.1-0.1-0.2-0.1c-0.3-0.2-0.7-0.3-1-0.5c-0.3-0.1-0.7-0.2-1-0.3
				c-0.7-0.2-1.2-0.3-1.8-0.4c-0.6-0.1-1.2-0.1-1.8,0c-0.2,0-0.3,0-0.5,0.1h-0.3c-0.5,0.1-0.9,0.2-1.3,0.3l-0.8,0.3v-0.7
				c0.1-0.5,0.1-0.9,0.1-1.4c0-0.4-0.1-0.9-0.2-1.6c-0.1-1.5-0.3-3-0.5-4.5c-0.2-1.4-0.4-2.5-0.7-3.3c-0.3-0.9-0.8-1.9-1.4-2.8
				c-0.8-1.2-1.6-1.9-1.9-2.1c-0.3-0.1-0.5-0.3-0.8-0.5c-0.2-0.2-0.5-0.4-0.7-0.5l-0.1-0.1v-0.2c0-0.1,0-0.1,0-0.2
				c0-0.1,0-0.1,0-0.2s0-0.1,0-0.2c0-0.2,0.1-0.4,0.2-0.5s0.2-0.2,0.5-0.2h0.3c0.6,0,0.9,0,1.3,0.1h0.1c0.2,0,0.3,0,0.5-0.1
				c0.1-0.1,0.2-0.2,0.3-0.3c0,0,0.1-0.1,0.1-0.3c0-0.1,0-0.2,0-0.2c0-0.2,0-0.3,0-0.5c0.1-0.2,0.3-0.2,0.4-0.3h0.1l0,0v-0.1
				c0-0.2,0-0.2-0.1-0.3l-0.6-0.6h0.8c0.1,0,0.1-0.1,0.2-0.1s0-0.1,0-0.1v-0.1c0-0.1,0-0.1,0-0.2c0-0.1,0-0.2,0-0.3
				c0-0.2,0.1-0.3,0.2-0.4s0.3-0.1,0.4-0.1c0.1,0,0.1,0,0.2,0s0.2-0.1,0.2-0.1s0.1-0.1,0.1-0.2c0-0.1,0-0.1,0-0.2s-0.1-0.2-0.1-0.2
				L140,11c-0.1-0.3-0.3-0.6-0.4-0.9c-0.1-0.2-0.1-0.4-0.1-0.6c0-0.1,0.1-0.2,0.2-0.3c0-0.1,0-0.3,0.1-0.5c-0.3-0.7-0.4-1.3-0.4-1.9
				l-0.1-0.6l0.3-0.1c0.4-0.1,0.7-0.2,0.9-0.4c0.2-0.2,0.4-0.4,0.5-0.9c-0.2-0.1-0.5-0.4-0.8-0.8c-0.1-0.1-0.6-0.8-0.8-1.1
				c-0.5-0.4-1.5-0.7-2-0.8l-0.2-0.1c-0.1,0-0.1,0-0.2-0.1c-0.1-0.1-0.3-0.1-0.5-0.2c-0.1,0-0.2-0.1-0.2-0.1L136,1.6
				c-1.4-0.2-2.9-0.1-4.3,0.4c-1.4,0.5-2.6,1.3-3.1,2.1c-0.1,0.2-0.1,0.3-0.1,0.5v0.2l-0.1,0.1C128.2,5,128.2,5,128.1,5
				c-0.2,0.1-0.3,0.2-0.3,0.3c-0.4,0.6-0.5,1.6-0.4,2.8c0.2,1.2,0.6,2.5,1.3,3.6v0.1c0,0.1,0.1,0.2,0.1,0.2V12
				c0.1,0.1,0.1,0.2,0.1,0.3c0,0,0,0.1,0,0.2c0.1,0.6,0.1,1-0.1,1.3c-0.1,0.2-0.4,0.4-0.7,0.5h-0.3l0.2,0.6
				c-0.1-0.1-0.4-0.3-0.7-0.4c-0.1-0.1-0.3-0.2-0.4-0.3c0,0-0.1-0.1-0.2-0.1s-0.2-0.1-0.3-0.2c-0.1,0-0.1-0.1-0.2-0.1s-0.1,0-1.5-1
				c-1.2-0.9-1.6-1.1-1.7-1.2s-0.3-0.3-0.4-0.4c-0.1-0.1-0.3-0.3-0.4-0.4c-0.3-0.4-0.8-0.8-1.3-1.3c-0.5-0.4-1-0.8-1.4-1
				c-0.6-0.3-1.1-0.8-1.6-1.2c-0.2-0.2-0.5-0.4-0.8-0.6c-1.4-1.1-2.2-1.3-3.3-1.7c-0.5-0.2-1.1-0.3-1.7-0.6
				c-0.3-0.1-0.6-0.3-0.9-0.5l-0.9-0.5c-0.2-0.2-0.4-0.4-0.7-0.5s-0.5-0.3-0.8-0.4c-0.2-0.1-0.5-0.2-0.7-0.2l-0.4-0.1
				c-0.4-0.1-0.8-0.2-1.1-0.4c-0.2-0.1-0.4-0.1-0.5-0.2H106c-0.1-0.1-0.3-0.1-0.4-0.2h-0.1V1.2l-0.1,0.3
				C105.4,1.3,105.3,1.3,105.2,1.3z"/>
			<g id="Group" transform="translate(0.000000, 64.596685)">
				<path id="Shape_1_" class="st1" d="M224.6,32.2c-0.1-0.5-0.4-0.7-0.9-0.6c-0.1,0-0.1,0-0.2,0c-0.5,0.1-1.5,0.5-2.9,1.2
					c-3,1.5-5.5,3.1-7.5,5.1c0.6-1.8,1-3.1,1.3-3.9l1.5-3.7c0.3-0.7,0.4-1.3,0.2-1.8c-0.1-0.4-0.4-0.7-1-1c0.7-1.4,0.9-2.5,0.6-3.2
					c-0.3-1-0.8-1.7-1.6-2.2c-0.6-0.4-1.3-0.6-2-0.5c-0.2,0-0.4,0-0.6,0.1c-1.5,0.4-3.5,1.6-6.1,3.7c-2.6,2.1-5,4.4-7.2,7
					c-2.9,3.4-5.1,6.7-6.5,9.9c-1.4,3.2-1.9,5.8-1.3,7.7c0.4,1.4,1.1,2.5,2.2,3.5c1,0.9,1.9,1.4,2.7,1.3c0.1,0,0.2,0,0.3,0
					c0.7-0.2,1.7-1.1,3-2.8c1.4-1.8,2.9-3.8,4.3-6.1c1.5-2.3,3.1-5,5-8.2l0.8-1.3l-0.4,1.3c-1,3.1-1.7,5.6-2.1,7.5
					c-0.4,1.8-0.5,2.9-0.3,3.6c0.3,0.9,1,1.6,2.1,2.2c0.6,0.3,1.1,0.5,1.6,0.5c0.1,0,0.1,0,0.2,0c0.3-0.1,0.6-0.3,0.8-0.5
					c0.1-0.2,0.3-0.6,0.4-1.2c0.6-2.4,1.2-4.3,1.9-5.9c0.7-1.6,1.5-3,2.5-4.3c0.9-1.2,2-2.3,3.5-3.3c1.2-0.9,2.7-1.8,4.4-2.5
					C224.4,33.2,224.7,32.7,224.6,32.2z M210.8,29.2c-0.3,1.2-1.2,3-2.7,5.5c-2.5,3.9-5.4,7.3-8.6,9.9c-1.6,1.3-2.7,2-3.3,2.2
					c-0.1,0-0.1,0-0.2,0c-0.3,0-0.4-0.1-0.5-0.3c-0.1-0.5,0.2-1.6,1.1-3.2c0.6-1.3,1.3-2.6,2.3-4c1-1.6,2-2.9,3-4
					c1.2-1.4,2.2-2.5,3.1-3.2c0.7-0.8,1.7-1.6,2.9-2.5c1-0.8,1.8-1.2,2.3-1.3c0.1,0,0.1,0,0.1,0c0.3,0,0.4,0.1,0.5,0.3
					C210.8,28.8,210.8,29,210.8,29.2z"/>
				<path id="Shape_2_" class="st1" d="M189.4,39.2c0.3-1.1,0.9-2.7,2-4.6l1.5-3c0.5-0.9,0.6-1.7,0.4-2.4c-0.2-0.8-0.7-1.5-1.3-1.9
					c-0.5-0.4-1.1-0.6-1.6-0.5c-0.1,0-0.2,0-0.2,0c-0.7,0.2-1.4,0.7-2.2,1.6c-0.8,0.8-2.2,2.7-4.2,5.6l-4.2,5.8
					c-1.1,1.7-1.9,2.7-2.1,3.1c-1.4,2.3-2.5,3.9-3.1,4.9c0.9-2.9,1.7-5.2,2.7-7.1l2.7-5.6c0.5-1,0.6-2,0.3-2.8
					c-0.2-0.9-0.7-1.6-1.2-2.1c-0.5-0.4-1-0.6-1.5-0.5c-0.1,0-0.2,0-0.3,0.1c-0.3,0.1-0.6,0.2-0.8,0.4c-0.2,0.3-0.4,0.8-0.8,1.6
					c-1.4,3.3-3.6,6.4-6.8,9.1l0.7-0.2c0.1,0,0.2,0,0.3-0.1c0.8-0.2,1.9-0.6,3.1-1.2l-0.4,1c-0.5,1.2-1,2.5-1.5,3.6
					c-0.8,0.3-1.9,0.8-3.2,1.6c-1.6,0.9-3.3,2-5.1,3.3c-1.7,1.3-3.8,3-6.4,5.3c-2.4,2.2-4.1,3.4-4.9,3.9c-0.4,0.2-0.7,0.4-1,0.5
					c-0.1,0-0.2,0-0.3,0.1c-0.7,0.1-1.1-0.2-1.3-0.9c-0.2-0.9-0.2-2.1,0.2-3.5c0.4-1.5,1-3,1.9-4.7c1.1,0.9,2.1,1.5,2.9,1.7
					c0.6,0.2,1.2,0.2,1.9,0.2c0.2,0,0.5-0.1,0.8-0.1c1.1-0.3,2.4-1.1,3.8-2.4c1.4-1.3,2.7-2.9,3.9-4.9c1.8-2.8,2.4-5.1,1.9-6.8
					c-0.2-0.7-0.6-1.4-1.2-2c-0.6-0.6-1.3-1.1-2-1.4c-0.6-0.3-1.2-0.4-1.7-0.3c-0.1,0-0.2,0-0.3,0.1c-1.1,0.3-2.7,1.3-4.8,2.9
					c-1.9,1.6-3.8,3.5-5.7,5.8c-2.1,2.7-3.7,5.3-4.8,8.1c0,0.1-0.1,0.2-0.1,0.2s-4.2,2.2-6.1,3.3c-0.3-0.4-0.9-0.7-1.7-0.8
					c-0.5,0-1.4,0-2.4,0.1c-0.4,0-0.9,0.1-1.5,0.2c-0.1,0-0.3,0-0.4,0c-0.8,0.1-1.7,0.1-2.5,0.1c-1,0.1-1.7,0-2.1-0.1
					c-0.4-0.1-0.6-0.3-0.7-0.6c-0.1-0.3,0.1-0.7,0.4-1.2c1.8-2.4,4-4.2,6.8-5.5l0.1,0.2c0.1,0.5,0.4,1.1,0.9,1.8
					c0.2-1,0.5-1.8,1-2.5c0.5-0.6,1.2-1.3,2.3-2c1.5-0.9,2.3-1.5,2.6-1.8c0.2-0.3,0.3-0.8,0.1-1.4c-0.2-0.7-0.5-1.2-1-1.5
					c-0.4-0.3-0.8-0.4-1.2-0.3c-0.1,0-0.2,0-0.2,0c-1.4,0.3-3.5,1.4-6.3,3.1c-2,1.3-4.1,2.8-6.1,4.6c-1.9,1.8-3.5,3.3-4.5,4.9
					c-0.8,1.3-1.1,2.4-0.8,3.1c0.2,0.6,0.5,1.1,0.9,1.5c-0.2,0.1-0.5,0.2-0.8,0.3c-1,0.5-1.9,1-2.7,1.5c-2,1.3-4.2,2.9-6.4,5
					c0.7-3,1.9-6.3,3.5-9.8c0.5-1.2,1.3-2.9,2.4-5.1c0.8-1.6,1.6-3.2,2.6-5c0.7-1.4,1.5-2.7,2.3-3.9l3.6-5.8c0.7-1.1,0.9-2,0.6-2.8
					c-0.2-0.8-0.6-1.4-1.2-1.9c-0.5-0.4-1-0.6-1.4-0.6c-0.1,0-0.1,0-0.2,0c-0.5,0.1-1.1,0.7-1.7,1.7c-0.4,0.6-0.8,1.3-1.2,1.9
					s-0.7,1.1-0.8,1.3c-0.7,1.2-1.5,2.2-2.5,2.9c-0.9,0.8-2.2,1.8-4,2.8c0.2,0,0.3,0,0.5,0c1.2-0.1,2-0.3,2.7-0.4
					c0.4-0.1,0.9-0.2,1.6-0.5l-0.9,1.5c-2.2,3.5-4.1,7.1-5.8,10.5c-1.6,3.2-2.9,6.5-4.1,9.7c-0.4,0.1-0.7,0.3-1.2,0.5
					c-3,1.5-5.5,3.1-7.5,5.1c0.6-1.8,1-3.1,1.3-3.9l1.5-3.7c0.3-0.7,0.4-1.3,0.2-1.8c-0.1-0.4-0.4-0.7-1-1c0.7-1.4,0.9-2.5,0.6-3.2
					c-0.3-1-0.8-1.7-1.5-2.2c-0.6-0.4-1.3-0.6-2-0.5c-0.2,0-0.4,0.1-0.6,0.1c-1.5,0.3-3.5,1.6-6.1,3.7c-2.6,2.1-5,4.4-7.2,7
					c-1.2,1.4-2.2,2.8-3.1,4l-0.1-0.1c-0.9-0.5-2.1-0.9-3.7-1.1c-0.7-2.2-1.8-3.6-3.2-4.7c-0.9-0.7-2.2-1.1-3.8-1.2
					c-1.7-0.1-4.5,0-8.4,0.2c-4.4,0.3-7.3,0.3-8.6,0c-0.6-0.2-1-0.5-1.1-1c-0.1-0.4,0-1,0.5-1.6c0.5-0.7,1.4-1.5,2.6-2.6
					c2.4-2,5-3.7,7.9-5.4c2.9-1.7,5.7-2.9,8.5-4c-0.3,0.7-0.7,1.2-1,1.7c-0.4,0.5-1.1,1.3-2.1,2.4c1.6-0.5,3.1-1.1,4.6-1.9
					c1.5-0.7,2.7-1.5,3.8-2.3c0.7-0.5,1.1-1.1,1.4-1.8c0.2-0.6,0.2-1.4,0-2.2c-0.2-0.9-0.7-1.5-1.3-1.8c-0.4-0.2-0.9-0.3-1.5-0.2
					c-0.3,0-0.6,0.1-0.9,0.2c-1.8,0.4-4.1,1.3-6.8,2.5c-2.8,1.3-5.5,2.7-8.1,4.2c-2.8,1.7-5.1,3.2-6.9,4.6c-2.5,2-4.3,3.6-5.3,5
					s-1.3,2.7-1,3.7c0.3,0.9,0.8,1.9,1.5,2.9s1.4,2,2.1,2.4c0.8,0.6,1.9,0.8,3.3,0.7c0.4,0,0.9-0.1,1.4-0.2l7.8-2
					c1.9-0.5,3.6-0.8,5-0.9c1.5-0.2,2.9-0.1,3.9,0.1c1.2,0.2,2,0.8,2.3,1.9c0.1,0.3,0.1,0.6,0.1,1c-1.1,0-2.1,0-2.9,0.1
					c-0.1,0-0.3,0-0.4,0c-0.8,0.1-2.1,0.4-3.7,0.8c-2.5,0.6-5.2,1.5-7.9,2.5c-2.9,1.1-5.6,2.3-8.3,3.4c-2.8,1.4-5.4,2.8-7.7,4
					c-2.5,1.5-4.5,2.9-6.2,4.2c-1.3,1.1-2.2,2.1-2.6,3.1c-0.4,1.1-0.4,2.5,0.1,3.9c0.8,2.9,2.2,4.9,4.2,6.4c1.6,1.2,3.3,1.7,5.2,1.6
					c0.4,0,0.7-0.1,1.1-0.2c5.4-1.3,11.2-4,17.7-8.1c2.5-1.6,4.7-3.1,6.6-4.8c1.9-1.6,3.4-3.2,4.7-4.8c1.3-1.6,2.3-3.3,3-5.1
					c0.6-1.5,0.9-3.1,0.9-5c0.8,0,1.7,0.1,2.8,0.5c-1.1,1.7-1.9,3.2-2.6,4.8c-1.4,3.2-1.9,5.8-1.3,7.7c0.4,1.4,1.1,2.5,2.2,3.5
					c1,0.9,1.9,1.4,2.7,1.3c0.1,0,0.2,0,0.3,0c0.7-0.2,1.7-1.1,3-2.8c1.4-1.8,2.9-3.8,4.3-6.1c1.5-2.3,3.1-5,5-8.2l0.8-1.3L96,65.5
					c-1,3.1-1.7,5.6-2.1,7.5c-0.4,1.8-0.5,2.9-0.3,3.6c0.2,0.9,1,1.6,2.1,2.2c0.6,0.3,1.1,0.5,1.6,0.5c0.1,0,0.1,0,0.2,0
					c0.3-0.1,0.6-0.2,0.8-0.5c0.1-0.2,0.3-0.6,0.4-1.2c0.6-2.4,1.2-4.3,1.9-5.9c0.7-1.6,1.5-3,2.5-4.3c0.9-1.2,2-2.3,3.5-3.3
					c0.6-0.4,1.2-0.9,1.9-1.3c-0.9,2.9-1.6,5.5-2.1,8.1c-0.2,1.2-0.2,2.1,0,2.8c0.2,0.7,0.8,1.3,1.7,1.9c0.8,0.5,1.5,0.8,2,0.7
					c0.3-0.1,0.5-0.2,0.7-0.5c0.1-0.2,0.4-0.8,0.8-1.9c1.1-2.8,1.9-4.5,2.2-5.2c0.9-1.9,2-3.4,3.2-4.9c2-2.4,4.6-4.1,7.8-5.5
					c0.4-0.2,0.7-0.4,0.8-0.6c0.2,0,0.3,0,0.5,0c1-0.1,2.2-0.3,3.7-0.6c2.1-0.4,3.6-0.7,4.7-0.8c-2.2,1.6-3.7,2.7-4.4,3.3
					c-3,2.3-5.7,4.7-8.4,7.2c-1.6,1.6-2.6,2.7-2.9,3.2c-0.4,0.7-0.5,1.4-0.3,2c0.2,0.7,0.7,1.2,1.4,1.8c0.5,0.4,1,0.6,1.4,0.6h0.1
					c0.3-0.1,0.6-0.4,1-0.9c1.5-1.8,4.1-4.4,7.9-8c3.3-3.1,6.5-5.8,9.5-8c1.7-1.3,3.3-2.4,4.8-3.2c-0.8,2.7-0.9,4.8-0.4,6.6
					c0.4,1.5,1.7,2.9,3.8,4.1c0.8,0.5,1.5,0.8,2.1,1c0.4,0.2,0.9,0.2,1.3,0.2c0.1,0,0.2,0,0.4-0.1c0.8-0.2,1.6-0.9,2.4-2
					c1-1.4,1.7-2.4,2-2.9s0.9-1.2,1.6-2.1c0.7-0.9,1.3-1.7,1.7-2.2s0.8-0.9,1.1-1.3c1.8-2.1,3.6-3.8,5.4-5.2c1.3-1,2.7-1.9,4.2-2.8
					c-1,2.8-1.9,5.5-2.6,8.4c-0.3,1.1-0.4,2.1-0.2,2.7c0.2,0.7,0.7,1.4,1.5,1.9c0.7,0.6,1.4,0.9,1.9,0.8h0.1c0.5-0.1,1-1,1.7-2.7
					c1-2.7,2-5.2,3.1-7.6c1.1-2.4,2.3-4.4,3.5-6.3c1.7-2.5,3.8-4.8,6.3-6.9c-0.6,1.8-0.9,2.9-0.7,3.4c0.2,0.8,0.8,1.4,1.8,1.9
					s2.1,0.7,3.3,0.6c-0.2-0.3-0.4-0.7-0.5-1.1C189.1,41.2,189.2,40.3,189.4,39.2z M157.1,42.3c1.9-1.8,3.4-2.8,4.5-3
					c0.1,0,0.1,0,0.2,0c0.3,0,0.5,0.1,0.6,0.4c0.2,0.5-0.2,1.5-1,2.9c-1,1.7-2.1,3-3.3,4.2c-1.2,1.2-2.3,1.9-3.4,2.2
					c-0.1,0-0.2,0-0.3,0c-0.7,0.1-1.4-0.2-2.2-0.9C153.5,45.9,155.1,44,157.1,42.3z M73.1,68.4c-0.8,1.3-1.9,2.7-3.1,3.9
					c-1.2,1.3-2.7,2.7-4.6,4.2c-3,2.5-6.5,4.7-10.5,6.8s-7.6,3.4-10.7,4.2c-0.8,0.2-1.4,0.3-2,0.4c-1.9,0.2-3-0.2-3.3-1.3
					c-0.5-1.6,0.8-3.8,3.8-6.8c1.7-1.8,4.3-3.6,7.6-5.8c3.6-2.3,7-4.1,10.3-5.7c3.5-1.6,6.6-2.8,9.3-3.4c1.4-0.3,2.8-0.6,4.4-0.7
					c0.3,0,0.6,0,0.9-0.1C74.5,65.6,73.9,67.1,73.1,68.4z M98.1,56.6c-0.3,1.2-1.2,3-2.7,5.5c-2.5,4-5.4,7.3-8.6,9.9
					c-1.6,1.3-2.7,2.1-3.3,2.2c-0.1,0-0.1,0-0.2,0c-0.3,0-0.4-0.1-0.5-0.3c-0.1-0.5,0.2-1.6,1.1-3.2c0.6-1.3,1.3-2.6,2.3-4
					c1-1.6,2-2.9,3-4c1.2-1.4,2.2-2.5,3.1-3.2c0.7-0.8,1.7-1.6,2.9-2.5c1-0.7,1.8-1.2,2.3-1.3c0.1,0,0.1,0,0.2,0
					c0.3,0,0.4,0.1,0.5,0.3C98.2,56.2,98.2,56.4,98.1,56.6z"/>
				<path id="Shape_3_" class="st1" d="M38.7,43.3c0.5-0.1,1.1-0.5,1.6-1.2c1.3-1.4,2.7-3.1,4.3-5.4l0.3-0.4l0.1-0.2
					c1.2-1.8,2.6-3.3,4-4.8c1.6-1.6,3.1-2.9,4.6-3.8c1-0.7,1.9-1.3,2.9-1.8c-0.9,2.6-1.6,5-2.2,7.5C54,34.3,54,35.3,54.2,36
					s0.7,1.4,1.4,1.9c0.6,0.5,1.1,0.7,1.6,0.7c0.1,0,0.2,0,0.2,0c0.4-0.1,0.9-1,1.5-2.8c1.6-4.3,3.1-7.7,4.5-10.1
					c1.9-3.3,3.6-5.8,5.3-7.5c0.7-0.7,1.2-1.1,1.5-1.2c0.1,0,0.2,0,0.3,0.2c0,0.1-0.1,0.5-0.3,1.2c-0.8,1.9-1.6,4.4-2.4,7.7
					c-0.8,3.2-0.9,5.4-0.5,6.8c0.2,0.8,0.7,1.4,1.3,1.9c0.5,0.4,1.1,0.6,1.6,0.5c0.1,0,0.2,0,0.3-0.1c0.4-0.1,0.6-0.2,0.8-0.5
					c0.2-0.3,0.3-0.6,0.4-1.1c0.5-2.3,1.3-4.4,2.4-6.5c1-2,2.4-3.7,3.9-5.2c0.4-0.4,0.9-0.8,1.3-1.1c-1.1,2.8-1.4,5-0.9,6.7
					c0.4,1.2,1.1,2.4,2.1,3.2c0.9,0.9,1.7,1.3,2.5,1.2c0.1,0,0.2,0,0.3,0c0.6-0.2,1.5-1,2.7-2.7c1.3-1.7,2.6-3.5,4-5.7
					c1.3-2.1,2.9-4.7,4.6-7.7l0.7-1.2L95,15.7c-0.9,2.9-1.5,5.2-1.9,7c-0.4,1.7-0.4,2.8-0.3,3.3c0.3,0.8,0.9,1.5,2,2
					c0.6,0.3,1.1,0.5,1.5,0.4c0.1,0,0.1,0,0.2,0c0.3-0.1,0.5-0.2,0.7-0.5c0.1-0.2,0.3-0.6,0.4-1.1c0.5-2.2,1.1-4,1.7-5.5
					c0.6-1.5,1.4-2.9,2.3-4.1c0.8-1.1,1.9-2.2,3.2-3.1c1.1-0.9,2.5-1.7,4.1-2.4c0.8-0.3,1.2-0.8,1-1.3c-0.1-0.4-0.4-0.6-0.8-0.6
					c-0.1,0-0.1,0-0.2,0c-0.5,0.1-1.4,0.5-2.6,1.1c-2.8,1.4-5.1,2.9-6.9,4.8c0.5-1.7,0.9-2.9,1.2-3.6l1.3-3.5
					c0.3-0.6,0.4-1.2,0.2-1.7c-0.1-0.3-0.4-0.7-0.9-1c0.6-1.3,0.8-2.3,0.5-3c-0.3-0.9-0.8-1.6-1.5-2c-0.6-0.3-1.2-0.5-1.9-0.4
					c-0.2,0-0.4,0.1-0.6,0.1c-1.4,0.3-3.2,1.5-5.7,3.5c-2.4,2-4.6,4.1-6.6,6.6c-1.9,2.3-3.4,4.5-4.6,6.7c-0.2,0.1-0.3,0.2-0.5,0.2
					c-2.7,1.3-5.1,3.2-7.3,5.8c0.6-2.7,1.4-5.1,2.3-7.4l2.3-5.5c0.3-0.9,0.5-1.5,0.3-2.1c-0.2-0.7-0.6-1.2-1.2-1.7
					c-0.6-0.4-1.1-0.5-1.5-0.5c-0.1,0-0.2,0-0.3,0.1c-0.3,0.1-0.5,0.2-0.8,0.4c-0.2,0.2-0.7,0.8-1.3,1.6l-1.7,2.3
					c-0.3,0.4-1,1.4-2.1,2.9c-1.8,2.7-3.4,4.8-4.5,6.7c-1.3,1.9-2.5,3.9-3.9,6.3c0.5-1.7,0.9-2.9,1.2-3.5c1.3-3.2,2.4-5.9,3.4-8.1
					c0.4-0.9,0.6-1.5,0.7-1.8c0.1-0.5,0-0.9-0.1-1.3c-0.2-0.7-0.6-1.3-1-1.7c-0.4-0.3-0.8-0.4-1.2-0.4c-0.1,0-0.2,0-0.2,0
					c-0.3,0.1-0.7,0.5-1.1,1.3l-2,3.3c-1.4,2.3-3.1,4.1-5.1,5.6c0.2,0,0.6-0.1,1-0.2c0.8-0.2,1.9-0.6,3.1-1.2
					c-0.6,1.6-1.2,3-1.8,4.5c-0.2,0.1-0.5,0.2-0.8,0.3c-2,1-4.3,2.3-6.9,4l-0.2,0.2l0.1-0.2c0.8-1.8,1.4-3.2,1.8-4.5
					c0.4-1.6,0.7-2.9,0.9-3.9c0.1-1.2,0.1-2.2-0.1-2.9c-0.2-0.5-0.5-1-1-1.5c-0.5-0.5-1.1-0.8-1.8-1c-0.5-0.1-1-0.2-1.4-0.1
					c-0.2,0-0.4,0-0.6,0.1c-1.8,0.5-4.3,2.8-7.4,6.8c-0.7,0.9-1.4,2-2.2,3.2c-0.8,1.3-1.5,2.5-2.2,3.7c-1.2,2.4-2.1,4.6-2.5,6.5
					c-0.5,2.1-0.5,3.6-0.1,4.9c0.4,1.1,1.1,2.1,2.3,3c1.3,1,2.3,1.4,3.2,1.4C38.5,43.3,38.6,43.3,38.7,43.3z M83.9,21.2
					c0.5-1.2,1.2-2.4,2.1-3.7c0.9-1.5,1.8-2.7,2.8-3.8c1.1-1.3,2.1-2.4,2.9-3c0.7-0.7,1.6-1.5,2.7-2.3c0.9-0.7,1.7-1.1,2.1-1.3
					c0.1,0,0.1,0,0.1,0c0.2,0,0.4,0.1,0.5,0.3s0.1,0.4,0,0.6c-0.2,1.2-1.1,2.9-2.5,5.2c-2.3,3.7-4.9,6.9-7.9,9.3
					c-1.5,1.2-2.5,2-3.1,2.1c-0.1,0-0.1,0-0.2,0c-0.2,0-0.4-0.1-0.5-0.3C82.8,23.9,83.1,22.8,83.9,21.2z M37.6,36.9
					c-0.2-0.7-0.1-1.8,0.3-3.2c0.4-1.4,1-2.9,1.9-4.6c1.4-2.7,2.9-4.9,4.5-6.8c1.7-2,3-3,4-3.2c0.1,0,0.1,0,0.2,0
					c0.4,0,0.7,0.2,0.8,0.6c0.2,0.6,0.1,1.6-0.2,2.8c-0.3,1.3-0.8,2.8-1.6,4.3c-0.9,1.8-1.8,3.4-2.9,5c-1.1,1.6-2.2,2.9-3.2,3.9
					c-1,1.1-1.9,1.7-2.7,1.9c-0.1,0-0.2,0-0.3,0.1C38,37.6,37.7,37.4,37.6,36.9z"/>
				<path id="Shape_4_" class="st1" d="M8.6,46.6c1.1-1.2,2.3-2.6,3.6-4c1.4-1.5,2.9-3.1,4.8-5c2.1-2.2,3.7-3.7,4.7-4.7
					c1.6-1.6,3.5-3.3,5.7-5.4l2.5-2.3c0.4-0.4,0.8-0.7,1.1-1s0.7-0.7,1.2-1.2c0.5-0.4,0.8-0.8,1.1-1c0.5-0.5,0.9-0.9,1.3-1.2
					c0.3-0.3,0.7-0.6,1-0.9c0.3-0.3,0.7-0.7,1.2-1.2c0.6-0.5,1.2-1.1,1.8-1.7c1.1-1,1.8-1.8,2.1-2.4c0.3-0.6,0.2-1.2,0-2.1
					c-0.2-0.5-0.4-0.9-0.6-1.3c-0.3-0.4-0.6-0.8-0.9-1.2c-0.3-0.3-0.6-0.6-0.9-0.8c-0.5-0.3-1.1-0.4-1.8-0.3c-0.1,0-0.2,0-0.3,0
					c-0.7,0.1-1.6,0.3-2.8,0.6c-2.1,0.6-4.5,1.4-7.1,2.3c-2.9,1-5.3,2-7.4,2.8c-2.2,0.9-4.4,1.9-6.8,2.9c-2.1,1-3.9,1.9-5.3,2.8
					c-0.8,0.5-1.3,0.9-1.6,1.4c-0.3,0.5-0.3,1-0.1,1.7c0.3,0.8,0.7,1.5,1.4,2.1c0.6,0.7,1.3,1.1,2,1.3c0.6,0.1,1.2,0.2,2.1,0.1
					c0.6-0.1,1.4-0.2,2.2-0.5c2-0.6,4.1-1.5,6.2-2.9h-1.3c-1.6,0.1-2.7,0.1-3.5,0.1s-1.7-0.1-2.6-0.2c2.2-1.6,5.6-3.4,10.4-5.6
					c2.6-1.2,4.9-2.2,7-2.9c2.1-0.8,4.4-1.5,7.1-2.2c-6,3.8-25,24-32.5,35.9c-0.4,0.6-0.9,1.2-1.3,1.8c-0.7,1-1.1,1.7-1.4,2.3
					c-0.2,0.6-0.2,1.1,0,1.7c0.4,1.1,1.1,2.1,2.3,2.9c1,0.7,1.8,1,2.6,0.9c0.1,0,0.2,0,0.3-0.1c0.5-0.1,1.1-0.4,1.8-0.9
					c7.6-4.9,14-8.1,19.1-9.4l0.6-0.2c-0.4,0.7-0.6,1.3-0.6,1.8c1-0.8,2.3-1.4,3.7-1.8c0.1,0,0.6-0.1,1.6-0.4
					c0.1-0.6,0.1-1.1-0.1-1.6c-0.4-1.1-1-1.7-2-1.9c-0.4-0.1-0.9-0.1-1.6,0c-0.9,0.1-2,0.4-3.3,0.7c-1.5,0.4-3,0.9-4.4,1.4
					c-2.4,0.9-5.2,2-8.3,3.2c-3.1,1.3-5.8,2.5-8,3.4l-1.3,0.6c0.7-0.9,1.5-2,2.4-3.1C6.5,49.1,7.5,47.9,8.6,46.6z"/>
			</g>
		</g>
	</g>
</g>
</svg>
