<?xml version="1.0" encoding="utf-8"?>
<!-- Generator: Adobe Illustrator 21.0.2, SVG Export Plug-In . SVG Version: 6.00 Build 0)  -->
<svg version="1.1" id="Capa_1" xmlns="http://www.w3.org/2000/svg" xmlns:xlink="http://www.w3.org/1999/xlink" x="0px" y="0px"
	 viewBox="0 0 43 67" style="enable-background:new 0 0 43 67;" xml:space="preserve">
<style type="text/css">
	.st0{opacity:0.7;}
	.st1{fill:#FFFFFF;}
</style>
<title>zs logo footer</title>
<desc>Created with Sketch.</desc>
<g id="Escritorio" class="st0">
	<g id="Home-Desktop" transform="translate(-169.000000, -2496.000000)">
		<g id="footer" transform="translate(-7.000000, 2482.000000)">
			<g id="zs-logo-footer" transform="translate(176.000000, 14.000000)">
				<path id="Fill-1" class="st1" d="M24.3,12c0,0-0.5,2.3-0.2,3.7s1.2,2.8,2.5,3.2c0.5,0.1,1.1,0.2,1.6,0.1c1.3-0.1,2-1.5,2.1-2.2
					c0.3-1.8-0.6-4.9-6.8-8.8C24.1,9,24.5,10,24.3,12"/>
				<path id="Fill-3" class="st1" d="M37.1,19.2c2.7-1.3,4.9-4.6,4.9-4.6c-2.6,1.6-4.3-0.4-6.6-0.6c-2.3-0.2-4.6,1.3-4.1,3.9
					C31.8,20.4,34.5,20.5,37.1,19.2"/>
				<path id="Fill-5" class="st1" d="M36.9,21c-7,0.1-9.5,5.8-9.3,10.5s3.6,9.7,4.7,12.2c1.1,2.5,3.6,10.1,1.8,12.2
					c-1.8,2-4.2,0.8-6.2-2.2c-2-3.1-4.7-9.9-6.7-14.3c-1-2.3-3-6-5.6-8.9c5.9-7.6,13.6-9.8,13.7-9.8C15.1,18.9,12.9,10.8,14.9,0
					c-5.6,11.9-1.4,16.6,6.5,22.4c-3.1,1.7-5.5,4-7.5,6.4c-2.1-1.8-4.6-2.9-7.5-2.6c-7.5,0.9-6.5,8.5-6.1,9.4c0,0,0.7-8.6,8.3-6.3
					c1.4,0.4,2.6,1,3.7,1.6C7,38.6,5.8,47.1,5.8,47.1c5.7-6.3,11.1-1.8,12.6,3c0.2,0.7,0.5,1.4,0.7,2c1.4,4.5,3,10.5,3.4,14.9
					c1.2-2,3.3-3.6,7.9-4c1,0.1,1.7-0.1,1.7-0.1c-0.1,0-0.2,0-0.3,0c-4.3-0.3-8.8-3.6-11.1-13.3c-2.3-10-10.5-8.7-10.5-8.7
					c1-3.4,2.4-6.2,3.9-8.6c3.2,2.8,4.6,6.6,6,9.7c2,4.5,4.5,18.6,14.1,19.4c9.7,0.8,4-12.5-1.2-20.9c-8.6-14.9,5-22.3,7.8-13.3
					c0.2,1.2,1.4,4.6-1.2,10.8C45,32.3,43.8,20.8,36.9,21"/>
			</g>
		</g>
	</g>
</g>
</svg>
